<svg id="Layer_1" enable-background="new 0 0 512.004 512.004" height="512" viewBox="0 0 512.004 512.004" width="512" xmlns="http://www.w3.org/2000/svg"><path d="m306.991 116.009c-7.337 0-14.399-4.051-17.904-11.06-2.759-5.517-8.304-8.944-14.472-8.944h-37.279c-6.168 0-11.713 3.427-14.472 8.944-4.941 9.88-16.956 13.884-26.833 8.944-9.88-4.94-13.884-16.953-8.944-26.833 9.578-19.156 28.833-31.056 50.249-31.056h37.279c21.416 0 40.671 11.9 50.249 31.056 4.939 9.879.936 21.893-8.944 26.833-2.871 1.435-5.924 2.115-8.929 2.116zm95.11 379.401c7.82-7.801 7.835-20.464.034-28.284-7.802-7.819-20.465-7.836-28.284-.034-3.13 3.122-7.458 4.913-11.875 4.913-3.514 0-8.601-.895-12.875-5.159-10.396-10.371-25.049-15.979-41.316-15.84-15.663.149-29.846 5.775-39.934 15.84-3.265 3.257-7.63 5.137-11.975 5.159-.024 0-.049 0-.073 0-4.212 0-8.365-1.831-11.702-5.159-10.681-10.655-26.075-16.923-41.272-16.839-14.788.109-29.358 6.247-39.978 16.839-3.207 3.199-7.7 5.127-12.019 5.159-.036 0-.072 0-.108 0-4.222 0-8.238-1.782-11.623-5.159-7.817-7.801-20.482-7.787-28.284.033-7.801 7.82-7.786 20.483.034 28.284 10.992 10.967 25.279 16.938 40.27 16.84 14.788-.107 29.36-6.245 39.98-16.839 3.206-3.199 7.701-5.127 12.021-5.159h.112c4.526 0 9.467 2.018 12.616 5.159 10.894 10.867 25.069 16.841 39.947 16.841h.278c14.782-.074 29.371-6.212 40.025-16.841 3.561-3.553 9.088-4.131 12.065-4.16 2.562-.01 8.847.333 12.684 4.161 10.887 10.859 25.492 16.84 41.125 16.84 14.93-.001 29.555-6.049 40.127-16.595zm59.875-205.406v-72c0-45.215-36.785-82-82-82h-248c-45.215 0-82 36.785-82 82v72c0 66.168 53.832 120 120 120h172c66.167 0 120-53.832 120-120zm-82-114c23.159 0 42 18.841 42 42v72c0 44.112-35.888 80-80 80h-172c-44.112 0-80-35.888-80-80v-72c0-23.159 18.841-42 42-42zm2 60c0-11.046-8.954-20-20-20h-212c-11.046 0-20 8.954-20 20s8.954 20 20 20h212c11.045 0 20-8.954 20-20zm-247.264-139.998c-4.016 0-8.067-1.205-11.587-3.711-8.996-6.409-11.095-18.897-4.687-27.894.534-.75.902-1.345 1.152-1.791-.438-.8-1.038-1.806-1.526-2.623-4.882-8.174-15.04-25.182-.637-50.017 5.541-9.556 17.781-12.81 27.335-7.267 9.555 5.542 12.809 17.78 7.267 27.335-1.993 3.437-2.054 4.905-2.054 4.919.145.692 1.52 2.995 2.43 4.519 4.87 8.154 15.004 25.121-1.387 48.131-3.901 5.478-10.058 8.399-16.306 8.399zm-63.693-8.398c16.391-23.011 6.257-39.978 1.387-48.131-.91-1.523-2.285-3.826-2.43-4.519 0-.014.061-1.482 2.054-4.919 5.542-9.555 2.288-21.793-7.267-27.335-9.554-5.544-21.793-2.29-27.335 7.266-14.403 24.835-4.245 41.843.637 50.017.488.817 1.089 1.822 1.526 2.623-.25.446-.618 1.041-1.152 1.791-6.408 8.997-4.31 21.485 4.687 27.894 3.52 2.507 7.571 3.711 11.587 3.711 6.247 0 12.404-2.921 16.306-8.398zm401.999 0c16.391-23.011 6.257-39.978 1.387-48.131-.91-1.523-2.285-3.826-2.43-4.519 0-.014.061-1.482 2.054-4.919 5.542-9.555 2.288-21.793-7.267-27.335-9.554-5.543-21.794-2.29-27.335 7.267-14.403 24.835-4.245 41.843.637 50.017.488.817 1.089 1.822 1.526 2.623-.25.446-.618 1.041-1.152 1.791-6.408 8.997-4.31 21.485 4.687 27.894 3.52 2.507 7.571 3.711 11.587 3.711 6.248-.001 12.405-2.922 16.306-8.399zm-80 0c16.391-23.011 6.257-39.978 1.387-48.131-.91-1.523-2.285-3.826-2.43-4.519 0-.014.061-1.482 2.054-4.919 5.542-9.555 2.288-21.793-7.267-27.335-9.554-5.543-21.793-2.29-27.335 7.267-14.403 24.835-4.245 41.843.637 50.017.488.817 1.089 1.822 1.526 2.623-.25.446-.618 1.041-1.152 1.791-6.408 8.997-4.31 21.485 4.687 27.894 3.52 2.507 7.571 3.711 11.587 3.711 6.248-.001 12.405-2.922 16.306-8.399z"/></svg>