<svg id="Capa_1" enable-background="new 0 0 511.912 511.912" height="512" viewBox="0 0 511.912 511.912" width="512" xmlns="http://www.w3.org/2000/svg"><path d="m454.902 10.606-10.607-10.606-442.01 442.01 69.903 69.902 97.379-97.379 73.034 73.034 212.301-212.301c72.966-72.966 72.966-191.693 0-264.66zm-60.207 81.42c10.487 14.791 16.163 32.41 16.163 50.91 0 23.582-9.184 45.752-25.858 62.428l-191.088 191.088-51.821-51.821zm-349.983 349.984 27.476-27.476 27.476 27.476-27.477 27.477zm76.166-21.213-27.477-27.477 27.476-27.477 27.477 27.477zm312.811-166.743-191.088 191.088-27.476-27.477 191.088-191.088c42.527-42.527 45.839-109.647 9.937-156.005l27.644-27.644c50.95 61.672 47.586 153.434-10.105 211.126z"/></svg>